<svg xmlns="http://www.w3.org/2000/svg" width="400" height="400" viewBox="0 0 400 400"><g transform="translate(200, 200) translate(-220, -220) scale(0.859375) translate(-144, -144)" fill="#000"><g xmlns="http://www.w3.org/2000/svg" fill="#f3f1f1"><path d="m304.46 409.48 7.0312-88.031h134.93l14.383 180.38h-75.367c17.73-31.242 6.7461-70.926-24.496-88.648-17.27-9.793-38.082-11.16-56.48-3.6992zm42.152-66.582c0-2.9336-2.3711-5.3047-5.3164-5.3047-2.9219.0-5.2969 2.3711-5.2969 5.3047s2.3711 5.3047 5.2969 5.3047c2.9453.0 5.3164-2.375 5.3164-5.3047zm75.293.0c0-2.9336-2.3711-5.3047-5.3164-5.3047-2.9414.0-5.3164 2.3711-5.3164 5.3047s2.3711 5.3047 5.3164 5.3047 5.3164-2.375 5.3164-5.3047z" fill="#f3f1f1" id="svg-el-0"/><path d="m411.08 318.48c-.15625-7.5117-1.043-14.988-2.6367-22.328-1.3945-6.5-3.6836-12.785-6.7461-18.688-2.8867-5.5078-6.8906-10.344-11.742-14.203-3.1328-2.4805-7.0117-3.8359-11-3.8359-4 0-7.8789 1.3555-11 3.8359-4.8711 3.8594-8.8789 8.6953-11.742 14.203-3.082 5.8984-5.3672 12.188-6.7656 18.688-1.5938 7.3398-2.4648 14.816-2.6406 22.328h-7.4062c.16016-8.0352 1.0977-16.043 2.8008-23.895 1.543-7.1523 4.0352-14.07 7.4414-20.555 3.3516-6.4297 8.0195-12.078 13.688-16.582 4.4492-3.5273 9.957-5.4375 15.625-5.4375s11.16 1.9102 15.602 5.4375c5.6836 4.5 10.344 10.152 13.707 16.582 3.3867 6.4844 5.8789 13.402 7.4414 20.555 1.7031 7.8555 2.6367 15.859 2.7969 23.895z" fill="#f3f1f1" id="svg-el-1"/><path d="m468.08 501.83-11.922-149.57h55.051l11.922 149.57zm22.793-131.79c0-2.4219-1.9688-4.4023-4.3867-4.4023-2.4492.0-4.4141 1.9766-4.4141 4.4023.0 2.4297 1.9648 4.4023 4.4141 4.4023 2.418.0 4.3867-1.9727 4.3867-4.4023z" fill="#f3f1f1" id="svg-el-2"/><path d="m437.27 314.2h-6.9766c.21484-.42188.42188-.85156.66016-1.2656 2.7773-5.332 6.6406-10.016 11.352-13.754 3.6836-2.9102 8.2539-4.5078 12.941-4.5078 4.6914.0 9.2695 1.5938 12.949 4.5078 4.7148 3.7383 8.5703 8.4219 11.375 13.754 2.7969 5.375 4.8711 11.113 6.1602 17.051 1.3945 6.5078 2.1797 13.141 2.3242 19.809h-6.1523c-.13672-6.2266-.86719-12.426-2.1953-18.516-1.168-5.3945-3.043-10.602-5.5977-15.496-2.3945-4.5586-5.6992-8.5742-9.7422-11.77-2.5859-2.0664-5.8047-3.1797-9.125-3.1797-3.3047.0-6.5156 1.1133-9.125 3.1797-3.5469 2.8125-6.543 6.2734-8.8477 10.188z" fill="#f3f1f1" id="svg-el-3"/><path d="m382.69 469.76c0 29.73-24.105 53.82-53.828 53.82-29.719.0-53.809-24.086-53.809-53.82.0-29.715 24.086-53.809 53.809-53.809s53.828 24.086 53.828 53.809zm-53.828-35.727h-15.18v49.641h-9.3711l24.551 21.93 24.566-21.93h-9.3711v-49.641z" fill="#f3f1f1" id="svg-el-4"/><path d="m634.77 402.41c0 127.14-103.06 230.2-230.2 230.2-127.14.0-230.21-103.06-230.21-230.2.0-127.14 103.06-230.2 230.21-230.2 127.13.0 230.2 103.07 230.2 230.2zm-23.809.0c0-113.99-92.402-206.39-206.39-206.39-113.98.0-206.38 92.402-206.38 206.39.0 113.99 92.402 206.38 206.38 206.38 113.99.003907 206.39-92.391 206.39-206.38z" fill="#f3f1f1" id="svg-el-5"/></g></g></svg>